<svg xmlns="http://www.w3.org/2000/svg" xmlns:xlink="http://www.w3.org/1999/xlink" width="1920" zoomAndPan="magnify" viewBox="0 0 1440 809.999993" height="1080" preserveAspectRatio="xMidYMid meet" version="1.0"><defs><clipPath id="3e8ff3124a"><path d="M 43.699219 477 L 585 477 L 585 801.125 L 43.699219 801.125 Z M 43.699219 477 " clip-rule="nonzero"/></clipPath><clipPath id="d206781f75"><path d="M 584.734375 321 L 1395.949219 321 L 1395.949219 801.125 L 584.734375 801.125 Z M 584.734375 321 " clip-rule="nonzero"/></clipPath><clipPath id="9f982dab20"><path d="M 43.699219 8.519531 L 1395.949219 8.519531 L 1395.949219 790 L 43.699219 790 Z M 43.699219 8.519531 " clip-rule="nonzero"/></clipPath></defs><g clip-path="url(#3e8ff3124a)"><path fill="#ecdcbf" d="M 584.769531 789.875 L 43.734375 477.5 L 43.734375 488.75 L 584.769531 801.136719 L 584.769531 789.875 " fill-opacity="1" fill-rule="nonzero"/></g><g clip-path="url(#d206781f75)"><path fill="#ce3c27" d="M 1396.289062 321.355469 L 584.769531 789.875 L 584.769531 801.136719 L 1396.289062 332.601562 L 1396.289062 321.355469 " fill-opacity="1" fill-rule="nonzero"/></g><g clip-path="url(#9f982dab20)"><path fill="#f8f2de" d="M 584.746094 789.898438 L 43.699219 477.523438 L 855.242188 8.980469 L 1396.289062 321.355469 L 584.746094 789.898438 " fill-opacity="1" fill-rule="nonzero"/></g><path fill="#ce3c27" d="M 872.746094 84.535156 C 858.742188 92.613281 836.042969 92.613281 822.050781 84.535156 C 808.054688 76.457031 808.054688 63.351562 822.050781 55.273438 C 836.042969 47.183594 858.742188 47.183594 872.746094 55.273438 C 886.742188 63.351562 886.742188 76.457031 872.746094 84.535156 " fill-opacity="1" fill-rule="nonzero"/><path fill="#ce3c27" d="M 969.671875 148.289062 L 885.417969 99.65625 C 882.199219 97.789062 882.597656 94.527344 886.332031 92.378906 C 890.054688 90.226562 895.691406 89.992188 898.917969 91.859375 L 983.171875 140.492188 C 986.402344 142.359375 985.992188 145.613281 982.269531 147.773438 C 978.535156 149.921875 972.898438 150.15625 969.671875 148.289062 " fill-opacity="1" fill-rule="nonzero"/><path fill="#d84040" d="M 1319.523438 323.949219 L 1210.871094 261.214844 L 1220.171875 255.863281 L 1328.824219 318.582031 L 1319.523438 323.949219 " fill-opacity="1" fill-rule="nonzero"/><path fill="#d84040" d="M 1298.824219 335.902344 L 1234.449219 298.730469 L 1243.734375 293.363281 L 1308.113281 330.535156 L 1298.824219 335.902344 " fill-opacity="1" fill-rule="nonzero"/><path fill="#d84040" d="M 1278.125 347.855469 L 1169.484375 285.121094 L 1178.769531 279.753906 L 1287.425781 342.488281 L 1278.125 347.855469 " fill-opacity="1" fill-rule="nonzero"/><path fill="#d84040" d="M 1119.054688 332.683594 L 835.609375 169.035156 L 857.472656 156.414062 L 1140.917969 320.0625 L 1119.054688 332.683594 " fill-opacity="1" fill-rule="nonzero"/><path fill="#ecdcbf" d="M 823.867188 198.859375 L 666.417969 289.757812 L 541.117188 217.421875 L 698.554688 126.507812 L 823.867188 198.859375 " fill-opacity="1" fill-rule="nonzero"/><path fill="#d84040" d="M 727.730469 214.921875 C 712.011719 223.996094 686.519531 223.996094 670.796875 214.921875 C 655.078125 205.84375 655.078125 191.121094 670.796875 182.046875 C 686.519531 172.96875 712.011719 172.96875 727.730469 182.046875 C 743.464844 191.121094 743.464844 205.84375 727.730469 214.921875 " fill-opacity="1" fill-rule="nonzero"/><path fill="#d84040" d="M 661.675781 287.023438 L 545.988281 220.226562 C 578.148438 203.660156 627.660156 204.234375 658.515625 222.058594 C 689.371094 239.871094 690.382812 268.460938 661.675781 287.023438 " fill-opacity="1" fill-rule="nonzero"/><path fill="#d84040" d="M 920.441406 273.308594 L 827.496094 219.640625 L 843.675781 210.292969 L 936.632812 263.964844 L 920.441406 273.308594 " fill-opacity="1" fill-rule="nonzero"/><path fill="#d84040" d="M 1008.558594 324.183594 L 941.023438 285.191406 L 957.214844 275.84375 L 1024.75 314.839844 L 1008.558594 324.183594 " fill-opacity="1" fill-rule="nonzero"/><path fill="#d84040" d="M 1033.097656 382.316406 L 789.421875 241.632812 L 798.964844 236.125 L 1042.644531 376.808594 L 1033.097656 382.316406 " fill-opacity="1" fill-rule="nonzero"/><path fill="#d84040" d="M 862.015625 313.324219 L 763.625 256.519531 L 773.171875 251.011719 L 871.5625 307.816406 L 862.015625 313.324219 " fill-opacity="1" fill-rule="nonzero"/><path fill="#d84040" d="M 981.507812 412.101562 L 737.828125 271.417969 L 747.363281 265.914062 L 991.050781 406.597656 L 981.507812 412.101562 " fill-opacity="1" fill-rule="nonzero"/><path fill="#d84040" d="M 898.496094 393.960938 L 712.035156 286.308594 L 721.566406 280.800781 L 908.03125 388.457031 L 898.496094 393.960938 " fill-opacity="1" fill-rule="nonzero"/><path fill="#d84040" d="M 872.699219 408.851562 L 686.238281 301.207031 L 695.773438 295.699219 L 882.234375 403.34375 L 872.699219 408.851562 " fill-opacity="1" fill-rule="nonzero"/><path fill="#d84040" d="M 628.765625 320.179688 L 495.949219 243.488281 L 505.621094 237.898438 L 638.453125 314.589844 L 628.765625 320.179688 " fill-opacity="1" fill-rule="nonzero"/><path fill="#d84040" d="M 723.375 374.800781 L 652.882812 334.09375 L 662.554688 328.515625 L 733.050781 369.210938 L 723.375 374.800781 " fill-opacity="1" fill-rule="nonzero"/><path fill="#d84040" d="M 861.113281 487.117188 L 467.535156 259.890625 L 474.425781 255.921875 L 867.992188 483.148438 L 861.113281 487.117188 " fill-opacity="1" fill-rule="nonzero"/><path fill="#d84040" d="M 653.304688 387.902344 L 449.558594 270.269531 L 456.449219 266.300781 L 660.183594 383.921875 L 653.304688 387.902344 " fill-opacity="1" fill-rule="nonzero"/><path fill="#d84040" d="M 921.226562 563.339844 L 431.582031 280.648438 L 438.476562 276.679688 L 928.109375 559.371094 L 921.226562 563.339844 " fill-opacity="1" fill-rule="nonzero"/><path fill="#d84040" d="M 708.628906 461.355469 L 413.605469 291.027344 L 420.5 287.058594 L 715.507812 457.375 L 708.628906 461.355469 " fill-opacity="1" fill-rule="nonzero"/><path fill="#d84040" d="M 609.957031 425.148438 L 395.632812 301.40625 L 402.511719 297.4375 L 616.835938 421.167969 L 609.957031 425.148438 " fill-opacity="1" fill-rule="nonzero"/><path fill="#d84040" d="M 461.335938 375.363281 L 364.433594 319.417969 L 374.109375 313.839844 L 471.007812 369.777344 L 461.335938 375.363281 " fill-opacity="1" fill-rule="nonzero"/><path fill="#d84040" d="M 729.585938 563.058594 L 336.019531 335.820312 L 342.914062 331.851562 L 736.480469 559.078125 L 729.585938 563.058594 " fill-opacity="1" fill-rule="nonzero"/><path fill="#d84040" d="M 621.179688 521.226562 L 318.042969 346.199219 L 324.9375 342.230469 L 628.070312 517.246094 L 621.179688 521.226562 " fill-opacity="1" fill-rule="nonzero"/><path fill="#d84040" d="M 612.105469 536.734375 L 300.070312 356.578125 L 306.960938 352.609375 L 618.996094 532.765625 L 612.105469 536.734375 " fill-opacity="1" fill-rule="nonzero"/><path fill="#d84040" d="M 577.101562 537.289062 L 282.09375 366.957031 L 288.972656 362.988281 L 583.996094 533.308594 L 577.101562 537.289062 " fill-opacity="1" fill-rule="nonzero"/><path fill="#d84040" d="M 478.429688 501.078125 L 264.117188 377.335938 L 270.996094 373.367188 L 485.320312 497.097656 L 478.429688 501.078125 " fill-opacity="1" fill-rule="nonzero"/><path fill="#d84040" d="M 392.4375 492.203125 L 228.8125 397.71875 L 238.484375 392.128906 L 402.125 486.613281 L 392.4375 492.203125 " fill-opacity="1" fill-rule="nonzero"/><path fill="#d84040" d="M 508.992188 559.492188 L 422.144531 509.34375 L 431.828125 503.753906 L 518.667969 553.902344 L 508.992188 559.492188 " fill-opacity="1" fill-rule="nonzero"/><path fill="#d84040" d="M 593.976562 641.351562 L 200.398438 414.121094 L 207.289062 410.140625 L 600.855469 637.382812 L 593.976562 641.351562 " fill-opacity="1" fill-rule="nonzero"/><path fill="#d84040" d="M 612.796875 672.980469 L 182.421875 424.5 L 189.3125 420.519531 L 619.6875 669 L 612.796875 672.980469 " fill-opacity="1" fill-rule="nonzero"/><path fill="#d84040" d="M 654.089844 717.574219 L 164.445312 434.878906 L 171.339844 430.910156 L 660.972656 713.605469 L 654.089844 717.574219 " fill-opacity="1" fill-rule="nonzero"/><path fill="#d84040" d="M 354.558594 565.40625 L 146.46875 445.261719 L 153.363281 441.292969 L 361.453125 561.425781 L 354.558594 565.40625 " fill-opacity="1" fill-rule="nonzero"/><path fill="#d84040" d="M 279.664062 542.921875 L 128.496094 455.640625 L 135.375 451.660156 L 286.554688 538.941406 L 279.664062 542.921875 " fill-opacity="1" fill-rule="nonzero"/><path fill="#d84040" d="M 207.769531 537.027344 L 97.648438 473.449219 L 113.324219 464.398438 L 223.445312 527.988281 L 207.769531 537.027344 " fill-opacity="1" fill-rule="nonzero"/><path fill="#d84040" d="M 299.222656 589.828125 L 235.914062 553.277344 L 251.589844 544.226562 L 314.898438 580.777344 L 299.222656 589.828125 " fill-opacity="1" fill-rule="nonzero"/><path fill="#d84040" d="M 587.28125 756.144531 L 466.441406 686.378906 L 482.117188 677.324219 L 602.957031 747.089844 L 587.28125 756.144531 " fill-opacity="1" fill-rule="nonzero"/></svg>